<?xml version="1.0" standalone="no"?>
<!DOCTYPE svg PUBLIC "-//W3C//DTD SVG 20010904//EN"
 "http://www.w3.org/TR/2001/REC-SVG-20010904/DTD/svg10.dtd">
<svg version="1.0" xmlns="http://www.w3.org/2000/svg"
 width="256.000000pt" height="256.000000pt" viewBox="0 0 256.000000 256.000000"
 preserveAspectRatio="xMidYMid meet">
<metadata>
Created by potrace 1.11, written by Peter Selinger 2001-2013
</metadata>
<g transform="translate(0.000000,256.000000) scale(0.100000,-0.100000)"
fill="#000000" stroke="none">
<path d="M1208 2285 c-2 -2 -25 -6 -53 -9 -154 -21 -288 -95 -325 -180 -14
-31 -18 -68 -19 -158 l0 -118 187 -1 c103 0 211 -1 240 -1 51 0 52 0 52 -28
l0 -29 -404 -3 -404 -3 -39 -31 c-48 -39 -98 -120 -123 -203 -69 -222 -29
-517 89 -653 48 -55 87 -66 229 -66 l122 0 1 26 c0 15 2 86 3 157 2 99 6 138
19 162 25 47 90 108 144 135 46 22 58 23 354 28 l306 5 41 27 c54 36 87 73
114 128 21 42 23 61 26 304 2 142 1 274 -3 293 -15 80 -135 164 -281 199 -59
14 -266 28 -276 19z m-144 -175 c32 -12 57 -59 50 -96 -11 -62 -80 -95 -133
-63 -58 35 -64 99 -14 145 28 26 56 30 97 14z"/>
<path d="M1829 1758 c-1 -2 -2 -59 -4 -128 -2 -105 -6 -133 -25 -174 -29 -64
-106 -145 -167 -177 -47 -24 -53 -24 -328 -26 -154 -2 -294 -5 -311 -8 -46 -8
-122 -62 -152 -109 l-27 -41 -2 -302 -2 -302 32 -48 c140 -210 701 -227 877
-26 45 51 50 71 50 203 l0 119 -227 0 c-126 0 -234 0 -240 0 -8 1 -13 14 -13
31 0 22 5 30 18 31 9 0 187 0 394 1 411 0 402 -1 465 60 41 40 88 137 109 224
17 75 23 236 12 324 -22 167 -108 314 -199 340 -29 8 -257 15 -260 8z m-236
-1137 c21 -2 57 -56 57 -87 0 -82 -103 -122 -156 -61 -26 30 -31 75 -13 108
12 23 64 48 88 44 9 -2 20 -4 24 -4z"/>
</g>
</svg>
